<?xml version="1.0" standalone="no"?>
<!DOCTYPE svg PUBLIC "-//W3C//DTD SVG 20010904//EN"
 "http://www.w3.org/TR/2001/REC-SVG-20010904/DTD/svg10.dtd">
<svg version="1.0" xmlns="http://www.w3.org/2000/svg"
 width="1080.000000pt" height="1080.000000pt" viewBox="0 0 1080.000000 1080.000000"
 preserveAspectRatio="xMidYMid meet">

<g transform="translate(0.000000,1080.000000) scale(0.100000,-0.100000)"
fill="#000000" stroke="none">
<path d="M2785 10783 c-99 -8 -337 -46 -410 -64 -476 -121 -917 -380 -1300
-764 -272 -271 -494 -576 -664 -914 -217 -430 -338 -819 -393 -1266 -20 -165
-17 -604 6 -780 61 -480 211 -943 441 -1357 82 -148 250 -396 347 -514 58 -71
3678 -4048 4653 -5112 9 -10 459 487 2228 2461 1219 1361 2245 2512 2280 2558
390 519 642 1056 752 1603 57 282 69 415 69 726 0 295 -13 443 -60 700 -161
877 -617 1644 -1274 2139 -847 639 -1918 746 -2857 285 -154 -76 -379 -218
-507 -321 -173 -140 -396 -375 -544 -571 l-86 -115 -25 34 c-323 426 -693 745
-1116 961 -273 139 -506 218 -820 279 -157 30 -542 48 -720 32z"/>
</g>
</svg>
