<?xml version="1.0" standalone="no"?>
<!DOCTYPE svg PUBLIC "-//W3C//DTD SVG 20010904//EN"
 "http://www.w3.org/TR/2001/REC-SVG-20010904/DTD/svg10.dtd">
<svg version="1.0" xmlns="http://www.w3.org/2000/svg"
 width="1080.000000pt" height="1080.000000pt" viewBox="0 0 1080.000000 1080.000000"
 preserveAspectRatio="xMidYMid meet">

<g transform="translate(0.000000,1080.000000) scale(0.100000,-0.100000)"
fill="#000000" stroke="none">
<path d="M2790 10783 c-139 -13 -300 -38 -386 -58 -481 -114 -937 -378 -1329
-770 -282 -281 -499 -584 -680 -946 -203 -408 -312 -759 -371 -1194 -22 -163
-25 -602 -5 -775 69 -608 282 -1179 629 -1690 111 -164 203 -277 401 -495 91
-99 463 -506 826 -905 364 -399 1203 -1319 1865 -2045 662 -726 1243 -1363
1291 -1415 100 -110 429 -471 439 -483 10 -11 4405 4893 4514 5037 437 580
698 1193 787 1851 30 216 32 663 5 890 -98 821 -401 1497 -925 2063 -581 627
-1412 970 -2210 913 -609 -44 -1129 -252 -1592 -637 -114 -95 -353 -346 -452
-475 -48 -62 -98 -127 -111 -143 l-22 -30 -45 60 c-443 596 -1079 1025 -1750
1179 -168 39 -200 44 -354 60 -124 13 -430 18 -525 8z m537 -248 c603 -79
1126 -336 1577 -775 149 -145 257 -275 425 -510 73 -102 136 -185 141 -185 5
0 66 83 136 185 162 237 248 345 403 504 204 208 409 362 654 491 728 382
1592 374 2317 -20 480 -261 872 -661 1161 -1186 436 -792 539 -1813 268 -2679
-123 -392 -323 -775 -601 -1152 -35 -47 -502 -576 -1038 -1174 -536 -599
-1483 -1655 -2104 -2349 -620 -693 -1142 -1275 -1160 -1293 l-31 -32 -186 202
c-101 112 -769 844 -1484 1628 -715 784 -1605 1760 -1979 2170 -374 410 -720
793 -770 851 -176 206 -317 420 -447 680 -408 818 -480 1699 -204 2523 189
566 528 1094 940 1465 411 372 827 577 1315 650 163 25 498 28 667 6z"/>
</g>
</svg>
